<?xml version="1.0" encoding="utf-8"?>
<!-- Generator: Adobe Illustrator 26.0.3, SVG Export Plug-In . SVG Version: 6.00 Build 0)  -->
<svg version="1.1" id="Слой_1" xmlns="http://www.w3.org/2000/svg" xmlns:xlink="http://www.w3.org/1999/xlink" x="0px" y="0px"
	 viewBox="0 0 56.7 56.7" style="enable-background:new 0 0 56.7 56.7;" xml:space="preserve">
<style type="text/css">
	.st0{fill:none;stroke:#5F15A3;stroke-width:6;stroke-miterlimit:10;}
	.st1{fill:#5F15A3;stroke:#5F15A3;stroke-miterlimit:10;}
</style>
<circle class="st0" cx="28.4" cy="28.4" r="25.3"/>
<path class="st1" d="M11.3,21.6c1.3-0.6,4.6-0.2,5.8,0c1.2,0.2,3.6,7.2,5.7,8.2c1.3-1.8,2.1-5.6-1.1-8.1c0.4-1.5,7.6-1.6,8.3-0.2
	c0.6,1.5-0.4,6.2,0.3,7.5c0.9,1.1,5.4-5.8,5.7-6.9c0.4-0.9,4.1-0.5,7-0.4c2.5,1.2-4.5,7.5-4.7,9.2c-0.2,1.8,5.3,5.3,5.3,7
	c-0.7,2.2-6,1.8-7,1.1c-1.7-0.8-2.7-2.1-4.7-4.3c-0.9-0.2-0.4,3.3-2.2,4.2c-1.8,0.9-8.6,0.4-11.9-4.4S10,22.2,11.3,21.6z"/>
</svg>
