<?xml version="1.0" encoding="utf-8"?>
<!-- Generator: Adobe Illustrator 26.0.3, SVG Export Plug-In . SVG Version: 6.00 Build 0)  -->
<svg version="1.1" id="Слой_1" xmlns="http://www.w3.org/2000/svg" xmlns:xlink="http://www.w3.org/1999/xlink" x="0px" y="0px"
	 viewBox="0 0 145 91" style="enable-background:new 0 0 145 91;" xml:space="preserve">
<style type="text/css">
	.st0{fill:#FFFFFF;}
</style>
<g>
	<path class="st0" d="M139.56,34.49c-0.23,0.27-1.05-0.14-1.39-0.22c-1.68-0.54-3.5-0.43-5.1,0.33c-1.15,0.53-1.31,0.93-0.67,1.42
		c0.63,0.47,1.07,1.15,1.23,1.92c0.16,0.77,0.04,1.57-0.35,2.26c-0.11,0.23-0.26,0.44-0.45,0.6c-0.19,0.17-0.41,0.29-0.66,0.37
		s-0.5,0.11-0.75,0.08c-0.25-0.02-0.5-0.1-0.72-0.22c-1.6-0.7-3.18-1.43-4.82-2.04c-3.75-1.39-7.79-1.84-11.75-1.31
		c-3.67,0.45-7.21,1.66-10.39,3.55c-1.79,1.08-3.66,2.25-4.69,2.97c-0.86,0.6-1.86,1.6-2.27,1.01c-0.42-0.6,2.13-3.01,3.24-3.99
		c1.34-1.24,2.75-2.39,4.24-3.46c3.23-2.3,6.79-4.09,10.56-5.32c4.43-1.39,9.03-2.15,13.66-2.27c2.22-0.13,4.44,0.1,6.59,0.67
		c1.61,0.33,3.07,1.17,4.17,2.39C139.48,33.55,139.85,34.16,139.56,34.49z"/>
	<path class="st0" d="M143.61,48.85c-0.08-0.1-0.19-0.17-0.3-0.23s-0.24-0.08-0.37-0.09c-2.43-0.15-4.82-0.7-7.06-1.63
		c-3.05-1.22-6.05-2.53-9.05-3.87c-2.72-1.33-5.65-2.18-8.66-2.53c-2.71-0.25-5.44,0.12-7.98,1.08c-2.22,0.84-4.35,1.92-6.33,3.24
		c-2.66,1.77-5.19,3.74-7.57,5.88c-4.81,4.37-9.25,9.14-14.24,13.35c-0.18,0.17-0.33,0.38-0.42,0.61c-0.1,0.23-0.15,0.48-0.15,0.73
		c0.14,1.28,0.43,2.54,0.87,3.74c0.96,3.03,2.6,5.8,4.81,8.09c2.08,2.19,4.55,3.96,7.3,5.22c1.8,0.86,3.68,1.55,5.6,2.08
		c2.11,0.46,4.24,0.75,6.4,0.87c4.37,0.39,8.78-0.31,12.8-2.06c3.52-1.51,6.76-3.63,9.55-6.26c1.98-1.93,3.7-4.11,5.12-6.48
		c1.56-2.42,2.64-5.12,3.18-7.95c0.45-2.19,0.47-4.45,0.07-6.65c-0.12-0.7-0.49-1.01-0.87-0.9c-0.38,0.1-0.41,0.82-0.42,1.16
		c0.01,0.55-0.1,1.09-0.32,1.6c-0.22,0.5-0.54,0.96-0.95,1.33c-0.07,0.1-0.17,0.17-0.28,0.23c-0.11,0.05-0.23,0.07-0.36,0.07
		c-0.12-0.01-0.24-0.04-0.35-0.11c-0.11-0.06-0.19-0.15-0.26-0.26c-0.38-0.53-0.68-1.12-0.89-1.74c-0.49-1.34-0.69-2.77-0.59-4.2
		c0.08-1.27,0.57-1.86,1.86-1.87c0.85,0,2.15,0.04,2.56,0.05c1.43,0.06,2.86-0.01,4.28-0.21c0.95-0.14,1.84-0.54,2.58-1.15
		c0.18-0.12,0.32-0.3,0.4-0.51C143.65,49.3,143.66,49.07,143.61,48.85z M98.88,56.15c1.42-1.24,2.77-2.62,4.25-3.8
		c1.11-0.95,2.31-1.79,3.58-2.51c0.64-0.41,1.36-0.66,2.12-0.71c0.38,0.01,0.74,0.13,1.06,0.34c0.31,0.21,0.56,0.5,0.72,0.85
		c1.4,2.08,2.08,4.56,1.95,7.06c-0.05,1.31-0.44,2.59-1.12,3.71c-0.68,1.12-1.63,2.06-2.77,2.71c-1.85,1.19-4.09,1.61-6.24,1.15
		c-1.79-0.44-3.43-1.32-4.78-2.57c-0.89-0.94-1.68-1.96-2.36-3.06C96.53,58.3,97.8,57.09,98.88,56.15L98.88,56.15z M123.25,61.03
		c-0.19,2.71-1.1,5.32-2.64,7.56c-2.18,2.89-5.17,5.08-8.58,6.3c-2.77,1.16-5.76,1.7-8.76,1.57c-2.99-0.12-5.9-0.93-8.53-2.36
		c-2.36-1.23-4.4-3-5.96-5.17c-0.6-0.83-1.15-1.72-1.69-2.6c-0.12-0.16-0.17-0.35-0.15-0.55c0.02-0.2,0.11-0.38,0.25-0.51
		c1.13-1,2.24-2.01,3.38-2.99c0.37-0.33,0.63-0.12,0.86,0.22c0.81,1.18,1.59,2.36,2.43,3.5c0.87,1.05,1.93,1.93,3.12,2.61
		c2.18,1.32,4.68,2,7.23,1.97c2.55-0.04,5.03-0.79,7.17-2.17c2.92-1.78,5.1-4.55,6.14-7.82c0.68-2.2,0.88-4.51,0.57-6.79
		c-0.24-2.37-0.98-4.67-2.16-6.74c-0.1-0.15-0.4-0.63-0.2-0.78c0.2-0.16,0.77,0.26,1.01,0.42c2.58,1.69,4.53,4.17,5.56,7.08
		C123.18,56.08,123.51,58.57,123.25,61.03L123.25,61.03z"/>
	<path class="st0" d="M139.12,2.01c-1.93,1.51-3.43,3.49-4.37,5.75c-0.41,1.59-1.07,3.1-1.95,4.48c-0.7,0.76-1.55,1.37-2.5,1.79
		c-0.77,0.46-0.83,0.51-0.27,1.19c0.95,1.24,1.46,2.75,1.46,4.3c0,1.56-0.51,3.07-1.46,4.3c-0.66,0.73-1.48,1.28-2.41,1.61
		c-2.57,0.93-7.67,1.6-11.14,2.73c-3.77,1.3-7.4,2.96-10.85,4.96c-3.61,2.35-6.93,5.12-9.88,8.25c-3.31,3.66-7.13,8.81-9.31,11.6
		c-2.25,2.9-5.07,6.4-6.37,7.99c-1.13,1.42-1.8,2.43-2.41,2.42c-0.31,0-0.46-0.57-0.59-0.85c-0.45-0.75-1.09-1.36-1.86-1.77
		c-0.77-0.41-1.63-0.61-2.5-0.57H72.7c-0.87-0.04-1.73,0.16-2.5,0.57c-0.77,0.41-1.41,1.02-1.86,1.77
		c-0.12,0.27-0.27,0.85-0.59,0.85c-0.6,0.01-1.27-1-2.41-2.42c-1.3-1.6-4.11-5.1-6.37-7.99c-2.17-2.79-6-7.94-9.31-11.6
		c-2.95-3.14-6.27-5.91-9.88-8.25c-3.45-2-7.08-3.66-10.85-4.96c-3.47-1.13-8.57-1.8-11.14-2.73c-0.92-0.33-1.75-0.88-2.41-1.61
		c-0.95-1.24-1.46-2.75-1.46-4.3c0-1.56,0.51-3.07,1.46-4.3c0.56-0.68,0.49-0.72-0.27-1.19c-0.95-0.42-1.8-1.03-2.5-1.79
		c-0.88-1.38-1.54-2.9-1.95-4.48C9.73,5.51,8.22,3.53,6.3,2.01c-0.92-0.56-0.81-0.86-0.57-1c1.68-0.21,3.39-0.16,5.06,0.15
		c3.3,0.69,6.35,2.26,8.83,4.55c2.21,1.8,4.32,3.77,6.48,5.66c2.57,2.25,5.12,4.55,8.51,5.55c2.08,0.54,4.25,0.59,6.35,0.14
		c1.79-0.31,3.58-0.64,5.37-1c1.3-0.26,2.6-0.56,3.89-0.87c4.15-1,8.43-1.39,12.69-1.13c2.24,0.11,4.46,0.42,6.64,0.92
		c1.03,0.31,2.09,0.53,3.16,0.65c1.07-0.13,2.12-0.34,3.16-0.65c2.18-0.5,4.41-0.8,6.64-0.92c4.26-0.25,8.54,0.13,12.69,1.13
		c1.3,0.31,2.6,0.61,3.89,0.87c1.79,0.36,3.58,0.68,5.37,1c2.1,0.45,4.28,0.41,6.35-0.14c3.39-1,5.94-3.29,8.51-5.55
		c2.16-1.89,4.26-3.85,6.48-5.66c2.48-2.29,5.53-3.86,8.83-4.55c1.67-0.31,3.37-0.36,5.06-0.15C139.93,1.15,140.04,1.45,139.12,2.01
		z"/>
	<path class="st0" d="M5.86,34.49c0.23,0.27,1.05-0.14,1.39-0.22c1.68-0.54,3.5-0.43,5.1,0.33c1.15,0.53,1.31,0.93,0.67,1.42
		c-0.63,0.47-1.07,1.15-1.23,1.92c-0.16,0.77-0.04,1.57,0.35,2.26c0.11,0.23,0.26,0.44,0.45,0.6c0.19,0.17,0.41,0.29,0.66,0.37
		c0.24,0.08,0.5,0.11,0.75,0.08c0.25-0.02,0.5-0.1,0.72-0.22c1.6-0.7,3.18-1.43,4.82-2.04c3.75-1.39,7.79-1.84,11.75-1.31
		c3.67,0.45,7.21,1.66,10.39,3.55c1.79,1.08,3.66,2.25,4.69,2.97c0.86,0.6,1.86,1.6,2.27,1.01c0.42-0.6-2.13-3.01-3.24-3.99
		c-1.34-1.24-2.75-2.39-4.24-3.46c-3.23-2.3-6.79-4.09-10.56-5.32c-4.43-1.39-9.03-2.15-13.66-2.27c-2.22-0.13-4.44,0.1-6.59,0.67
		c-1.61,0.33-3.07,1.17-4.17,2.39C5.94,33.55,5.57,34.16,5.86,34.49z"/>
	<path class="st0" d="M81.13,77.2c-5.36,2.09-8.42,12.9-8.42,13c0-0.1-3.06-10.9-8.42-13c3.76-9.66,4.14-13.06,8.4-13.17h0.03
		C76.99,64.14,77.37,67.54,81.13,77.2z"/>
	<path class="st0" d="M2.25,50.02c0.74,0.61,1.63,1,2.58,1.15c1.42,0.2,2.85,0.27,4.28,0.21c0.41-0.01,1.71-0.05,2.56-0.05
		c1.28,0.01,1.78,0.6,1.86,1.87c0.11,1.42-0.09,2.85-0.59,4.2c-0.21,0.62-0.51,1.2-0.89,1.74c-0.06,0.1-0.15,0.19-0.26,0.26
		c-0.11,0.06-0.22,0.1-0.35,0.11c-0.12,0.01-0.24-0.02-0.36-0.07c-0.11-0.05-0.21-0.13-0.28-0.23c-0.41-0.37-0.73-0.82-0.95-1.33
		c-0.22-0.5-0.33-1.05-0.32-1.6c-0.01-0.34-0.04-1.07-0.42-1.16c-0.38-0.11-0.75,0.2-0.87,0.9c-0.4,2.2-0.38,4.46,0.07,6.65
		c0.54,2.83,1.62,5.53,3.18,7.95c1.42,2.37,3.14,4.55,5.12,6.48c2.8,2.63,6.03,4.74,9.55,6.26c4.03,1.75,8.43,2.46,12.8,2.06
		c2.15-0.13,4.29-0.42,6.4-0.87c1.93-0.52,3.8-1.22,5.6-2.08c2.74-1.26,5.22-3.03,7.3-5.22c2.21-2.29,3.85-5.06,4.81-8.09
		c0.44-1.21,0.74-2.47,0.87-3.74c0-0.25-0.05-0.5-0.15-0.73c-0.1-0.23-0.24-0.44-0.42-0.61c-4.99-4.21-9.43-8.98-14.24-13.35
		c-2.38-2.14-4.91-4.1-7.57-5.88c-1.98-1.32-4.1-2.4-6.33-3.24c-2.54-0.96-5.27-1.33-7.98-1.08c-3.01,0.34-5.94,1.2-8.66,2.53
		c-2.99,1.34-6,2.65-9.05,3.87c-2.25,0.93-4.64,1.48-7.06,1.63c-0.13,0-0.25,0.03-0.37,0.09C2,48.68,1.9,48.76,1.81,48.85
		c-0.06,0.22-0.04,0.44,0.03,0.65C1.93,49.71,2.07,49.89,2.25,50.02z M50.13,59.32c-0.68,1.1-1.48,2.12-2.36,3.06
		c-1.35,1.25-3,2.13-4.78,2.57c-2.15,0.46-4.4,0.05-6.24-1.15c-1.14-0.66-2.09-1.59-2.77-2.71c-0.68-1.12-1.06-2.4-1.12-3.71
		c-0.13-2.5,0.55-4.98,1.95-7.06c0.16-0.34,0.4-0.64,0.72-0.85c0.31-0.21,0.68-0.33,1.06-0.34c0.75,0.05,1.48,0.3,2.12,0.71
		c1.27,0.72,2.47,1.57,3.58,2.51c1.48,1.18,2.83,2.56,4.25,3.8C47.62,57.09,48.89,58.3,50.13,59.32z M23.13,53.77
		c1.03-2.9,2.98-5.39,5.56-7.08c0.25-0.16,0.81-0.59,1.01-0.42c0.19,0.15-0.11,0.63-0.21,0.78c-1.18,2.07-1.92,4.37-2.16,6.74
		c-0.3,2.28-0.11,4.6,0.57,6.79c1.03,3.26,3.21,6.04,6.14,7.82c2.14,1.38,4.62,2.14,7.17,2.17c2.55,0.04,5.05-0.65,7.23-1.97
		c1.19-0.68,2.24-1.56,3.12-2.61c0.85-1.13,1.63-2.32,2.43-3.5c0.23-0.34,0.49-0.55,0.86-0.22c1.13,0.98,2.24,2,3.38,2.99
		c0.14,0.14,0.23,0.32,0.25,0.51c0.02,0.2-0.04,0.39-0.15,0.55c-0.55,0.87-1.09,1.76-1.69,2.6c-1.56,2.16-3.6,3.93-5.96,5.17
		c-2.62,1.43-5.54,2.24-8.53,2.36c-3,0.13-5.99-0.41-8.76-1.57c-3.42-1.22-6.4-3.41-8.58-6.3c-1.54-2.24-2.45-4.85-2.64-7.56
		C21.91,58.57,22.24,56.08,23.13,53.77L23.13,53.77z"/>
</g>
</svg>
