<?xml version="1.0" encoding="utf-8"?>
<!-- Generator: Adobe Illustrator 26.0.3, SVG Export Plug-In . SVG Version: 6.00 Build 0)  -->
<svg version="1.1" id="Слой_1" xmlns="http://www.w3.org/2000/svg" xmlns:xlink="http://www.w3.org/1999/xlink" x="0px" y="0px"
	 viewBox="0 0 56.7 56.7" style="enable-background:new 0 0 56.7 56.7;" xml:space="preserve">
<style type="text/css">
	.st0{fill:#5F15A3;}
</style>
<g>
	<path class="st0" d="M28.6,0.1c0.6,0.3,1.2,0.6,1.8,1c3.2,1.7,6.5,3.4,9.7,5.1c1,0.5,1.9,1,2.8,1.5c0,0,0.1,0,0.1,0.1
		c-0.3,0.2-0.7,0.3-1,0.5s-0.7,0.4-1.1,0.5c-0.1,0-0.1,0.1-0.1,0.2c0,0.8,0,1.5,0,2.3c0,0.1,0,0.2,0.1,0.2c0.3,0.2,0.4,0.6,0.2,0.9
		c-0.1,0.3-0.4,0.5-0.7,0.5s-0.6-0.2-0.7-0.5c-0.1-0.3,0-0.6,0.3-0.9l0.1-0.1c0-0.7,0-1.3,0-2c0,0,0,0,0-0.1H40
		c-0.8,0.4-1.6,0.8-2.4,1.2c-0.1,0.1-0.1,0.1-0.1,0.2c0,0.9,0,1.7,0,2.5c0,0.2,0,0.3-0.2,0.4c-0.3,0.2-0.7,0.3-1,0.4
		c-0.8,0.2-1.7,0.4-2.5,0.5c-1.9,0.2-3.9,0.3-5.8,0.3c-2.2,0-4.3-0.2-6.4-0.7c-0.5-0.1-1-0.3-1.5-0.5c-0.1,0-0.1-0.1-0.2-0.1
		c-0.2-0.1-0.2-0.3-0.2-0.5c0-0.7,0-1.4,0.1-2.1c0-0.1,0-0.2-0.1-0.2c-1.6-0.9-3.3-1.7-4.9-2.6C14.5,8,14.3,7.8,14,7.7
		c0.3-0.2,0.6-0.3,0.9-0.5c1.7-0.9,3.5-1.8,5.2-2.7c2-1.1,4.1-2.1,6.1-3.2C27,0.9,27.8,0.5,28.6,0.1C28.6,0.2,28.6,0.1,28.6,0.1
		L28.6,0.1z M29,14.1c1,0,2.7,0,4.3-0.2c0.9-0.1,1.8-0.2,2.7-0.4c0.3-0.1,0.6-0.2,0.9-0.3c0.2-0.1,0.2-0.2,0-0.3
		c-0.1-0.1-0.3-0.2-0.5-0.2c-0.8-0.2-1.6-0.3-2.5-0.4c-1.6-0.2-3.2-0.2-4.8-0.2c-1.5,0-2.9,0.1-4.4,0.1c-1.1,0-2.1,0.1-3.2,0.4
		c-0.4,0.1-0.7,0.2-1,0.3c-0.1,0-0.2,0.1-0.2,0.2c0,0.1,0.1,0.2,0.2,0.2c0.2,0.1,0.4,0.2,0.6,0.2c0.8,0.1,1.6,0.3,2.5,0.4
		C25.2,14,26.8,14,29,14.1z M20,9.2c0.2-0.1,0.3-0.2,0.5-0.3c1.4-0.9,3-1.3,4.6-1.6c1.1-0.2,2.2-0.2,3.3-0.2c1.3,0,2.6,0,3.9,0.2
		c1.2,0.2,2.4,0.5,3.6,1.1c0.4,0.2,0.9,0.5,1.3,0.8c0-0.1,0.1-0.3,0.1-0.4c0.1-0.1,0-0.2-0.1-0.3c-0.3-0.2-0.6-0.4-0.9-0.6
		c-0.7-0.4-1.5-0.9-2.3-1c-0.7-0.1-1.4-0.3-2.1-0.3c-1.1-0.1-2.3-0.2-3.4-0.2c-1.2,0-2.4,0.1-3.6,0.2c-0.9,0-1.7,0.1-2.4,0.4
		c-0.6,0.3-1.2,0.6-1.9,1c-0.3,0.1-0.5,0.4-0.8,0.5l-0.1,0.1C19.9,8.9,19.9,9.1,20,9.2z"/>
	<path class="st0" d="M7.6,36.2c0-0.2,0-0.3,0-0.5c0.1-2.9,0.8-5.6,2-8.2c0.9-1.8,2-3.5,3.4-5c0.3-0.3,0.6-0.5,0.8-0.8
		c0.1,0.1,0.2,0.2,0.3,0.3c-3.5,3.5-5.6,7.7-6,12.7c-0.4,5,0.9,9.5,3.8,13.5c3,4,6.9,6.5,11.8,7.6c0,0,0,0,0,0.1
		c-0.1,0.4-0.1,0.4-0.5,0.3c-3-0.7-5.7-2-8.1-3.9c-3.5-2.8-5.8-6.4-6.9-10.7c-0.3-1-0.4-2-0.5-3c-0.1-0.6-0.1-1.2-0.1-1.8v-0.1
		C7.6,36.4,7.6,36.3,7.6,36.2z"/>
	<path class="st0" d="M36,30c-0.1-0.2-0.2-0.4-0.1-0.6c0-0.1,0.1-0.2,0.2-0.3c0.4-0.4,0.8-0.8,1.3-1.3c0.4,0.4,0.8,0.8,1.2,1.3
		c-0.4,0.4-0.7,0.7-1.1,1.1c-0.4,0.4-0.7,0.4-1.1,0.2c-2.5,2.6-5,5.2-7.5,7.8c0.3,0.3,0.7,0.6,1,1c2.3,2.3,4.7,4.7,7,7
		c0.1,0.1,0.1,0.1,0.2,0.1c0.3-0.1,0.6,0,0.7,0.3c0.1,0.2,0.1,0.6-0.1,0.8c-0.2,0.2-0.5,0.3-0.8,0.1c-0.3-0.1-0.4-0.4-0.3-0.7
		c0-0.1,0-0.2-0.1-0.2c-1-1-2.1-2.1-3.1-3.1c-1.6-1.6-3.2-3.2-4.8-4.8c0,0,0,0-0.1-0.1c-2.8,2.9-5.6,5.8-8.4,8.7
		c0.2,0.2,0.4,0.4,0.5,0.6c-0.1,0.1-0.2,0.2-0.3,0.3c-0.5-0.5-1-1-1.5-1.5c0.1-0.1,0.2-0.2,0.3-0.3c0.2,0.2,0.4,0.4,0.6,0.6
		c2.8-2.9,5.6-5.8,8.4-8.7c-2.6-2.6-5.1-5.2-7.7-7.8c-0.1,0-0.2,0.1-0.3,0.1c-0.3,0.1-0.5,0-0.7-0.2c-0.4-0.4-0.8-0.8-1.2-1.2
		c0.4-0.4,0.8-0.8,1.2-1.2c0.2,0.2,0.4,0.4,0.6,0.6s0.3,0.3,0.5,0.5c0.4,0.4,0.4,0.6,0.2,1.1c2.6,2.6,5.1,5.1,7.7,7.7
		C31,35.2,33.5,32.6,36,30z M19.5,28.7c0.3,0.4,0.3,0.4,0.2,0.4c-0.1-0.1-0.3-0.2-0.4-0.4c-0.1-0.1-0.1-0.1-0.2-0.1
		c0.2,0.2,0.5,0.5,0.7,0.7c-0.2,0-0.3,0-0.3-0.1l-0.1-0.1c0,0-0.1,0-0.1,0.1v0.1c0.1,0,0.2,0.2,0.4,0.1c0.1,0,0.2,0,0.2,0.2
		c0,0.1,0.1,0.2,0.2,0.1c0.1,0,0.1-0.1,0.1-0.1c0-0.1,0-0.2-0.1-0.2c-0.2,0-0.4-0.2-0.3-0.4c0-0.2-0.1-0.4-0.2-0.5
		C19.6,28.6,19.6,28.7,19.5,28.7z M37.7,28.7C37.7,28.6,37.6,28.6,37.7,28.7c-0.2,0.1-0.4,0.3-0.6,0.5c-0.2-0.3,0.2-0.3,0.2-0.4
		l-0.1-0.1c-0.2,0-0.2,0.2-0.2,0.4s-0.2,0.4-0.3,0.4s-0.2,0-0.2,0.2c0,0.1,0,0.2,0.2,0.2s0.2-0.1,0.2-0.2s0.1-0.2,0.1-0.2
		c0.2,0,0.3,0,0.5-0.1l0.1-0.1l-0.1-0.1c0,0-0.1,0-0.1,0.1c-0.1,0.1-0.2,0.2-0.3,0.1c0.2-0.2,0.3-0.3,0.5-0.5
		C37.6,28.8,37.6,28.7,37.7,28.7z"/>
	<path class="st0" d="M43.2,22.7c0.1-0.1,0.2-0.2,0.3-0.3c4.8,4.8,7.2,12.9,4.5,20.7c-2.8,8.2-10,12.5-15.8,13.3
		c0-0.1,0-0.3-0.1-0.4c4.9-0.9,9-3.2,12.1-7.1c3.1-3.9,4.6-8.3,4.4-13.3C48.4,30.6,46.6,26.3,43.2,22.7z"/>
	<path class="st0" d="M17.4,39.2c0-1.5,0-2.9,0-4.3c0.3,0,0.6,0,0.9,0c0,1.1,0,2.1,0,3.2c0,0,0-0.1,0.1-0.1c0.5-1,1.1-2,1.6-3
		c0-0.1,0.1-0.1,0.2-0.1c0.3,0,0.6,0,0.9,0c0,1.4,0,2.9,0,4.3c-0.3,0-0.6,0-0.9,0c0-1,0-2,0-3c0,0.1-0.1,0.1-0.1,0.2
		c-0.4,1-1,1.9-1.5,2.8l-0.1,0.1C18.1,39.2,17.8,39.2,17.4,39.2z"/>
	<path class="st0" d="M32.1,55.2c0-0.1,0-0.1,0-0.2c4.6-0.9,8.5-3.1,11.5-6.8s4.3-7.9,4.1-12.7s-2-8.8-5.3-12.2c0,0,0.1-0.1,0.2-0.1
		c4.4,4.4,6.8,11.7,4.5,19C44.6,49.7,38.2,54.2,32.1,55.2z"/>
	<path class="st0" d="M23.8,54.8c0,0.1,0,0.2,0,0.2C17.9,53.8,12,49.3,9.7,42.2s-0.2-14.7,4.9-19.6c0.1,0.1,0.1,0.1,0.1,0.2
		c-3.3,3.3-5.3,7.3-5.6,12c-0.4,4.7,0.8,9,3.6,12.7C15.5,51.3,19.2,53.7,23.8,54.8z"/>
	<path class="st0" d="M27.1,29.2c0-1.4,0-2.8,0-4.2c0.1,0,0.2,0,0.4,0c0.6,0,1.1-0.1,1.7,0c0.3,0,0.5,0.2,0.7,0.4
		c0.4,0.4,0.3,1.1-0.2,1.4c-0.1,0-0.2,0.1-0.3,0.1c0.1,0,0.2,0.1,0.3,0.1c0.4,0.2,0.6,0.5,0.6,1s-0.3,0.8-0.7,1
		c-0.2,0.1-0.5,0.2-0.8,0.2s-0.6,0-0.9,0C27.7,29.2,27.4,29.2,27.1,29.2z M28.1,28.5c0.3,0,0.6,0,0.9-0.1c0.2-0.1,0.3-0.3,0.3-0.5
		c0-0.3-0.1-0.4-0.4-0.5s-0.6-0.1-0.9-0.1C28.1,27.7,28.1,28.1,28.1,28.5z M28.1,26.6c0.3,0,0.7,0,0.9-0.1c0.3-0.2,0.3-0.6,0-0.8
		c-0.3-0.2-0.6-0.1-0.9-0.1C28.1,25.9,28.1,26.2,28.1,26.6z"/>
	<path class="st0" d="M28.3,45.9c0.1,0,0.1,0,0.2,0c0.2,0,0.3,0,0.4-0.2c0.2-0.2,0.3-0.4,0.5-0.7s0.4-0.5,0.7-0.7
		c0.3-0.2,0.6-0.1,0.8,0.2c0.3,0.4,0.5,0.8,0.5,1.2c0,0.2,0,0.4,0,0.5c0,0.5-0.2,0.9-0.6,1.2c-0.1,0.1-0.2,0.1-0.4,0.1
		c-0.2,0-0.4,0-0.6,0c-0.3,0-0.4-0.1-0.6-0.3l-0.1-0.1c-0.2,0.1-0.3,0.2-0.5,0.4c-0.1-0.1-0.3-0.2-0.4-0.3s-0.1-0.1-0.2,0
		s-0.2,0.2-0.4,0.3c-0.1,0-0.1,0.1-0.2,0.1c-0.2,0-0.4,0-0.6,0c-0.4,0-0.6-0.2-0.9-0.5c-0.2-0.2-0.3-0.5-0.3-0.8c0-0.2,0-0.4,0-0.7
		c0-0.5,0.2-0.9,0.6-1.3c0.2-0.2,0.4-0.2,0.6,0c0.3,0.2,0.6,0.4,0.8,0.7C27.8,45.4,28,45.7,28.3,45.9z M27.1,47.2c0.1,0,0.2,0,0.3,0
		c0.2,0,0.5-0.3,0.5-0.5c0-0.1,0-0.2,0.1-0.3s0.1-0.2,0-0.3c-0.3-0.4-0.6-0.7-0.9-1.1c-0.1-0.1-0.2-0.2-0.4-0.3
		c-0.2-0.1-0.4-0.1-0.5,0c-0.2,0.2-0.4,0.4-0.4,0.7c0,0.2,0,0.4,0,0.6c0,0.2,0,0.3,0.1,0.4C26.3,46.8,26.5,47.3,27.1,47.2z M31,45.7
		c0-0.1,0-0.2,0-0.3c0-0.3-0.1-0.5-0.3-0.7c-0.2-0.2-0.4-0.2-0.5-0.1c-0.2,0.1-0.3,0.2-0.4,0.4c-0.3,0.3-0.5,0.7-0.8,1
		c-0.1,0.1-0.1,0.2,0,0.2c0.2,0.1,0.2,0.3,0.2,0.5c0,0.1,0,0.1,0.1,0.2c0.1,0.1,0.3,0.2,0.5,0.2c0.1,0,0.2,0,0.3,0
		c0.3,0,0.4-0.1,0.6-0.3C30.8,46.6,31,46.2,31,45.7z"/>
	<path class="st0" d="M38.5,34.8c0,0.3,0,0.5,0,0.8c-0.4,0-0.8,0-1.2,0c0,1.2,0,2.3,0,3.5c-0.3,0-0.6,0-1,0c0-1.2,0-2.3,0-3.5
		c-0.4,0-0.8,0-1.2,0c0-0.3,0-0.5,0-0.8C36.3,34.8,37.4,34.8,38.5,34.8z"/>
	<path class="st0" d="M39.5,17.2c0.1-1.3,0.1-2.6,0.2-3.9c0.6,0.3,1,0.3,1.5,0c0,1.1,0,2.2,0,3.3c-0.3-0.2-0.6-0.2-0.9,0
		C40,16.6,39.8,16.9,39.5,17.2C39.5,17.1,39.5,17.1,39.5,17.2L39.5,17.2z"/>
	<path class="st0" d="M26.3,43.2l-0.1-0.1c0-0.1,0-0.1-0.1-0.2c0.1,0,0.2-0.1,0.2-0.1c0.1,0,0.3,0.1,0.4,0.2c0.4,0.3,0.7,0.8,1,1.2
		c0.2,0.2,0.4,0.5,0.6,0.8c0.2,0.2,0.2,0.2,0.4,0c0.3-0.4,0.5-0.7,0.8-1.1c0.2-0.3,0.5-0.6,0.8-0.9c0.1-0.1,0.2-0.2,0.4-0.2
		c0.1,0,0.2,0,0.2,0.1c0,0,0,0.1-0.1,0.2c0,0.1-0.1,0.1-0.1,0.2c0.1,0,0.1,0,0.2,0s0.1,0,0.2,0s0.1,0.1,0.1,0.1l-0.1,0.1
		c-0.1,0-0.1,0.1-0.2,0.1c0,0-0.1,0-0.2,0s-0.2,0-0.3,0.1c-0.1,0.1-0.2,0.1-0.3,0.2C30.1,44,30,44,30,44c-0.4,0.4-0.8,0.8-1.1,1.3
		l-0.1,0.1c0,0-0.1,0-0.2,0s-0.2,0-0.3-0.2c-0.3-0.5-0.7-0.9-1.1-1.3c-0.1-0.1-0.3-0.1-0.4-0.2l0,0c-0.1-0.2-0.2-0.1-0.4-0.1
		c0,0-0.1,0-0.1-0.1l-0.1-0.1l-0.1-0.1l0.1-0.1C26.1,43.3,26.2,43.3,26.3,43.2C26.3,43.3,26.3,43.2,26.3,43.2z"/>
	<path class="st0" d="M20.8,17.1c0.2,0.4,0.5,0.8,0.8,1.1c0-0.5,0-0.9,0-1.4c0.2,0,0.3-0.1,0.5-0.2c0.2,0.6,0.5,1.2,0.7,1.8
		c-0.1,0-0.2,0.1-0.4,0.1c-0.2-0.5-0.3-0.9-0.5-1.4l0,0c0,0.5,0,1,0,1.5c-0.3,0.1-0.3,0.1-0.5-0.1c-0.2-0.3-0.4-0.7-0.7-1
		c0.1,0.5,0.3,0.9,0.4,1.4c-0.1,0-0.2,0.1-0.4,0.1c-0.1-0.2-0.1-0.4-0.2-0.6c-0.1-0.4-0.2-0.7-0.3-1.1c0-0.1,0-0.2,0.1-0.2
		C20.5,17.2,20.7,17.1,20.8,17.1z"/>
	<path class="st0" d="M28.5,15.8c0.1,0,0.3,0,0.3,0C28.9,15.9,29,16,29,16c0.5,0.1,0.7,0.4,0.7,0.9s-0.3,0.8-0.8,0.9c0,0,0,0-0.1,0
		c0,0.1,0,0.1,0,0.2c-0.1,0-0.2,0-0.4,0c0-0.1,0-0.2-0.2-0.2c-0.4-0.1-0.6-0.4-0.6-0.9c0-0.4,0.3-0.8,0.7-0.8
		C28.5,16,28.5,16,28.5,15.8z M28.9,17.5c0.3-0.1,0.5-0.3,0.4-0.8c0-0.2-0.2-0.4-0.4-0.4C28.9,16.7,28.9,17.1,28.9,17.5z M28.5,16.3
		c-0.2,0-0.4,0.2-0.4,0.5c0,0.4,0.1,0.6,0.4,0.6C28.5,17.1,28.5,16.7,28.5,16.3z"/>
	<path class="st0" d="M26.6,15.9c0.1,0.7,0.1,1.3,0.2,1.9c-0.1,0-0.3,0-0.4,0c0-0.5-0.1-0.9-0.1-1.4c0,0,0,0.1-0.1,0.1
		c-0.2,0.4-0.3,0.8-0.5,1.2c0,0.1-0.1,0.1-0.2,0.1s-0.2,0-0.4,0c-0.1-0.6-0.1-1.3-0.2-2c0.1,0,0.2,0,0.4,0c0,0.5,0.1,0.9,0.1,1.5
		c0-0.1,0.1-0.1,0.1-0.2c0.2-0.4,0.3-0.8,0.5-1.3c0-0.1,0.1-0.1,0.2-0.1C26.4,16,26.5,15.9,26.6,15.9z"/>
	<path class="st0" d="M19.7,19.2c0,0.5-0.4,0.9-1,0.9c-0.5,0-1-0.5-1-1.1c0-0.5,0.4-0.9,1-0.9C19.3,18,19.7,18.5,19.7,19.2z
		 M19.3,19.3c0-0.3-0.2-0.6-0.4-0.8c-0.1-0.1-0.3-0.1-0.5,0c-0.1,0.1-0.2,0.2-0.2,0.4c0,0.3,0.1,0.5,0.3,0.7
		c0.1,0.1,0.3,0.2,0.5,0.1C19.2,19.6,19.3,19.4,19.3,19.3z"/>
	<path class="st0" d="M24.7,17.3c0,0.4-0.1,0.7-0.4,0.9s-0.6,0.2-1,0s-0.6-0.8-0.4-1.2c0.1-0.5,0.5-0.7,0.9-0.7
		c0.5,0,0.9,0.4,0.9,0.9C24.7,17.3,24.7,17.3,24.7,17.3z M23.2,17.2c0,0.3,0.1,0.5,0.2,0.7c0.2,0.2,0.6,0.2,0.7-0.1s0-0.8-0.2-1
		s-0.5-0.1-0.7,0.2C23.3,17,23.3,17.1,23.2,17.2z"/>
	<path class="st0" d="M36,17.4c0.4,0.2,0.8,0.3,1.2,0.5c-0.2,0.6-0.5,1.2-0.8,1.8c-0.1-0.1-0.2-0.1-0.4-0.2c0.2-0.5,0.4-1,0.6-1.5
		c-0.2-0.1-0.3-0.1-0.4-0.2c-0.1,0.2-0.2,0.5-0.3,0.7c-0.1,0.1-0.2,0.3-0.3,0.4c-0.2,0.2-0.5,0.2-0.7,0.1c0-0.1,0-0.2,0.1-0.2
		l0.1-0.1c0.2,0,0.3-0.1,0.4-0.2C35.7,18.2,35.8,17.8,36,17.4C36,17.5,36,17.4,36,17.4z"/>
	<path class="st0" d="M32.8,17.4c0.3,0.1,0.3,0.4,0.3,0.6s0,0.4,0,0.5l0,0c-0.4-0.1-0.4-0.1-0.5-0.5c0-0.1,0-0.1,0-0.2
		c0-0.2-0.1-0.3-0.4-0.3c-0.1,0.3-0.1,0.5-0.2,0.8c-0.1,0-0.3-0.1-0.4-0.1c0.1-0.6,0.3-1.3,0.4-1.9c0.1,0,0.3,0.1,0.4,0.1
		c-0.1,0.3-0.1,0.5-0.2,0.8l0,0c0.2-0.1,0.3-0.3,0.5-0.4c0.2-0.3,0.5-0.2,0.8-0.1C33.4,16.9,33.2,17.1,32.8,17.4z"/>
	<path class="st0" d="M31.5,18.2c-0.1,0-0.3,0-0.4,0L31,18.1c0-0.1,0-0.3-0.1-0.4s-0.2,0-0.4-0.1c-0.1,0-0.2,0-0.3,0.1
		c0,0.1-0.1,0.2-0.1,0.3c-0.1,0-0.3,0-0.4-0.1c0.2-0.5,0.4-0.9,0.6-1.4c0.1-0.1,0.1-0.3,0.2-0.4c0,0,0.1-0.1,0.2-0.1l0,0
		c0.1,0,0.3,0,0.4,0.1s0.1,0.2,0.1,0.4C31.4,17.1,31.5,17.6,31.5,18.2z M30.5,17.2c0.1,0,0.3,0,0.5,0.1c0-0.3-0.1-0.5-0.1-0.9
		C30.7,16.7,30.6,16.9,30.5,17.2z"/>
	<path class="st0" d="M26.2,56.7c-0.1,0-0.3,0-0.4,0c0-0.2,0-0.5,0.1-0.7c-0.2-0.1-0.3,0-0.4,0.2c-0.1,0.1-0.1,0.2-0.2,0.3
		c0,0.1-0.1,0.2-0.3,0.2c-0.1,0-0.1,0-0.2,0c0.2-0.3,0.2-0.7,0.5-0.8c-0.1-0.1-0.1-0.2-0.2-0.3c-0.2-0.3,0-0.6,0.4-0.7
		c0.3-0.1,0.6,0,1,0.1C26.3,55.5,26.2,56.1,26.2,56.7z M25.9,55.6c0-0.2,0-0.3,0.1-0.4c0-0.1,0-0.2-0.1-0.2s-0.1,0-0.2,0
		s-0.2,0.1-0.2,0.2s0,0.2,0.2,0.3C25.7,55.6,25.8,55.6,25.9,55.6z"/>
	<path class="st0" d="M41.5,20.5c-0.1,0.1-0.1,0.2-0.2,0.3c-0.2-0.1-0.4-0.3-0.6-0.5c-0.1,0.1-0.2,0.2-0.3,0.3
		c0.2,0.1,0.4,0.3,0.6,0.4c-0.1,0.1-0.1,0.2-0.2,0.3c-0.2-0.1-0.4-0.3-0.6-0.4c-0.1,0.1-0.2,0.2-0.3,0.4c0.2,0.2,0.4,0.3,0.7,0.5
		c-0.1,0.1-0.1,0.2-0.2,0.3c-0.1,0-0.1-0.1-0.2-0.1c-0.3-0.2-0.5-0.4-0.8-0.6c0.4-0.5,0.8-1,1.2-1.6C40.9,20.1,41.2,20.3,41.5,20.5z
		"/>
	<path class="st0" d="M36.8,19.9c0.3-0.6,0.6-1.2,0.9-1.8c0.1,0.1,0.2,0.1,0.4,0.2c-0.1,0.2-0.2,0.4-0.3,0.6
		c0.2,0.1,0.3,0.2,0.5,0.3c0.3,0.3,0.2,0.9-0.2,1c-0.2,0-0.3,0-0.5,0C37.3,20.2,37,20,36.8,19.9z M37.3,19.8
		c0.2,0.1,0.3,0.2,0.5,0.1c0.1-0.1,0.2-0.2,0.2-0.3c0-0.2-0.2-0.3-0.4-0.4C37.5,19.4,37.4,19.6,37.3,19.8z"/>
	<path class="st0" d="M16.1,20.8c-0.2,0.2-0.4,0.3-0.7,0.5c-0.1-0.1-0.1-0.2-0.2-0.3c0.2-0.2,0.4-0.3,0.7-0.5
		c-0.2-0.3-0.6-0.3-1,0.2c-0.1-0.1-0.1-0.1-0.2-0.2c0.2-0.4,0.7-0.7,1.1-0.6c0.4,0.1,0.8,0.6,0.8,1c0,0.3-0.2,0.6-0.5,0.8L16,21.8
		c-0.3,0.2-0.3,0.2-0.4-0.2C16.1,21.4,16.3,21.2,16.1,20.8z"/>
	<path class="st0" d="M33.7,18.3L33.7,18.3c0.3,0.1,0.5-0.1,0.4-0.3c-0.1-0.4-0.1-0.8-0.2-1.2c0,0,0-0.1,0-0.2
		c0.1,0,0.3,0.1,0.4,0.1l0.1,0.1c0,0.3,0.1,0.7,0.1,1c0-0.1,0.1-0.1,0.1-0.1c0.2-0.2,0.3-0.4,0.5-0.7c0.1-0.1,0.1-0.1,0.2-0.1
		c0.1,0,0.2,0.1,0.3,0.1c-0.4,0.5-0.8,0.9-1.2,1.3c-0.2,0.2-0.4,0.3-0.7,0.2c-0.1,0-0.2-0.1-0.1-0.2C33.7,18.4,33.7,18.4,33.7,18.3z
		"/>
	<path class="st0" d="M27.1,56.1c0,0.1,0,0.2,0,0.3s0,0.2,0,0.3c-0.1,0-0.3,0-0.4,0c0-0.6,0-1.2,0.1-1.8c0.3,0,0.7-0.1,1,0.1
		c0.2,0.1,0.4,0.3,0.3,0.6c0,0.3-0.2,0.5-0.5,0.5C27.4,56.1,27.3,56.1,27.1,56.1z M27.1,55.8c0.1,0,0.1,0,0.2,0s0.3-0.1,0.3-0.2
		c0-0.1,0-0.3-0.1-0.3c-0.1-0.1-0.2-0.1-0.4-0.1c0,0,0,0,0,0.1C27.1,55.4,27.1,55.6,27.1,55.8z"/>
	<path class="st0" d="M30,56.4c0.1,0,0.1,0,0.2,0c0.2-0.1,0.2-0.2,0.1-0.3c-0.2-0.4-0.5-0.7-0.7-1.1c0.1,0,0.3,0,0.4,0l0.1,0.1
		c0.2,0.3,0.3,0.5,0.5,0.9c0-0.2,0-0.3,0.1-0.4c0-0.2,0-0.3,0.1-0.5c0-0.2,0-0.2,0.3-0.3c0,0,0.1,0,0.2,0c0,0.2-0.1,0.3-0.1,0.4
		c-0.1,0.4-0.2,0.7-0.3,1.1c-0.1,0.4-0.4,0.5-0.8,0.5C30,56.6,30,56.5,30,56.4z"/>
	<path class="st0" d="M39.6,19.6c-0.3,0.5-0.6,0.9-0.8,1.4c-0.1-0.1-0.2-0.1-0.4-0.2c0.3-0.5,0.6-0.9,0.8-1.4
		c-0.2-0.1-0.3-0.2-0.5-0.3c0.1-0.1,0.1-0.2,0.2-0.3c0.4,0.3,0.8,0.5,1.3,0.8c-0.1,0.1-0.1,0.2-0.2,0.3
		C39.9,19.8,39.8,19.7,39.6,19.6z"/>
	<path class="st0" d="M16.7,19.5c-0.2,0.1-0.3,0.2-0.5,0.3c-0.1-0.1-0.1-0.2-0.2-0.3c0.4-0.3,0.9-0.5,1.3-0.8
		c0.1,0.1,0.1,0.2,0.2,0.3c-0.1,0.1-0.3,0.2-0.5,0.3c0.3,0.5,0.5,0.9,0.8,1.4c-0.1,0.1-0.2,0.1-0.4,0.2C17.2,20.4,16.9,20,16.7,19.5
		z"/>
	<path class="st0" d="M42,21.4c-0.1-0.1-0.3-0.2-0.4-0.4c0.1-0.1,0.2-0.2,0.2-0.3c0.4,0.3,0.8,0.7,1.1,1c-0.1,0.1-0.2,0.2-0.2,0.3
		c-0.1-0.1-0.3-0.2-0.4-0.4c-0.3,0.4-0.7,0.8-1,1.2c-0.1-0.1-0.2-0.2-0.3-0.3C41.3,22.2,41.6,21.8,42,21.4z"/>
	<path class="st0" d="M29.4,54.9c0,0.1,0,0.2,0,0.3c-0.2,0-0.5,0-0.7,0c0,0.5,0,1,0.1,1.5c-0.1,0-0.3,0-0.4,0c0-0.6-0.1-1.2-0.1-1.8
		C28.7,54.9,29,54.9,29.4,54.9z"/>
	<path class="st0" d="M18.6,27.4c0.2,0.2,0.4,0.4,0.6,0.6c-0.3,0.3-0.5,0.5-0.8,0.8c-0.2-0.2-0.4-0.4-0.5-0.6
		C18.1,27.9,18.4,27.6,18.6,27.4z M18.7,27.6c-0.1,0.1-0.2,0.1-0.2,0.2l0.1,0.1C18.7,27.8,18.7,27.8,18.7,27.6
		C18.8,27.6,18.8,27.6,18.7,27.6z M18.3,28c-0.1,0.1-0.2,0.1-0.2,0.2l0.1,0.1c0.1-0.1,0.1-0.1,0.2-0.2L18.3,28z"/>
	<path class="st0" d="M37.7,27.9c0.2-0.2,0.4-0.4,0.6-0.6c0.3,0.3,0.5,0.5,0.8,0.8c-0.2,0.2-0.4,0.4-0.6,0.6
		C38.2,28.5,37.9,28.2,37.7,27.9z M38.4,27.8c-0.1-0.1-0.2-0.1-0.2-0.2l-0.1,0.1c0.1,0.1,0.1,0.2,0.2,0.3
		C38.3,27.9,38.3,27.9,38.4,27.8z M38.6,28l-0.1,0.1c0.1,0.1,0.1,0.1,0.2,0.2l0.1-0.1C38.7,28.1,38.7,28.1,38.6,28z"/>
	<path class="st0" d="M25.3,15.6c0.1,0,0.2,0,0.2,0l0,0c0.1,0,0.1,0.1,0.2,0.1c0,0,0.1-0.1,0.1-0.2c0.1,0,0.2,0,0.3,0
		c0,0.2-0.1,0.4-0.4,0.4C25.5,15.9,25.4,15.9,25.3,15.6z"/>
	<path class="st0" d="M26.5,45.5c0.2,0,0.5-0.1,0.7,0c0.3,0,0.5,0.3,0.5,0.7v0.1c-0.3,0.1-0.5,0.2-0.8,0
		C26.6,46.1,26.4,45.8,26.5,45.5z M27.2,45.9c-0.1-0.1-0.1-0.1-0.2-0.1l-0.1,0.1c0,0,0.1,0.1,0.1,0.2C27.1,46,27.1,45.9,27.2,45.9z"
		/>
	<path class="st0" d="M30.5,45.5c0,0.3-0.1,0.6-0.4,0.7c-0.3,0.2-0.5,0.1-0.8,0l-0.1-0.1c0-0.4,0.4-0.7,0.8-0.6
		C30.2,45.4,30.4,45.5,30.5,45.5z M29.9,45.7c-0.1,0.1-0.1,0.2-0.1,0.2c0,0.1,0.1,0.1,0.1,0.2L30,46C30,45.8,30,45.8,29.9,45.7z"/>
</g>
</svg>
