<?xml version="1.0" encoding="utf-8"?>
<!-- Generator: Adobe Illustrator 26.0.3, SVG Export Plug-In . SVG Version: 6.00 Build 0)  -->
<svg version="1.1" id="Слой_1" xmlns="http://www.w3.org/2000/svg" xmlns:xlink="http://www.w3.org/1999/xlink" x="0px" y="0px"
	 viewBox="0 0 145 91" style="enable-background:new 0 0 145 91;" xml:space="preserve">
<style type="text/css">
	.st0{fill:#284744;stroke:#5F15A3;}
</style>
<g>
	<line class="st0" x1="-10" y1="-17.34" x2="153" y2="-17.34"/>
	<line class="st0" x1="-10" y1="7.67" x2="153" y2="7.67"/>
	<line class="st0" x1="-10" y1="32.68" x2="153" y2="32.68"/>
	<line class="st0" x1="-10" y1="57.7" x2="153" y2="57.7"/>
	<line class="st0" x1="-10" y1="82.71" x2="153" y2="82.71"/>
	<line class="st0" x1="-10" y1="20.18" x2="153" y2="20.18"/>
	<line class="st0" x1="-10" y1="-4.83" x2="153" y2="-4.83"/>
	<line class="st0" x1="-10" y1="45.19" x2="153" y2="45.19"/>
	<line class="st0" x1="-10" y1="70.2" x2="153" y2="70.2"/>
	<line class="st0" x1="-10" y1="95.22" x2="153" y2="95.22"/>
	<line class="st0" x1="-10" y1="107.72" x2="153" y2="107.72"/>
	<line class="st0" x1="134.17" y1="-36.17" x2="134.17" y2="126.83"/>
	<line class="st0" x1="109.16" y1="-36.17" x2="109.16" y2="126.83"/>
	<line class="st0" x1="84.15" y1="-36.17" x2="84.15" y2="126.83"/>
	<line class="st0" x1="59.13" y1="-36.17" x2="59.13" y2="126.83"/>
	<line class="st0" x1="34.12" y1="-36.17" x2="34.12" y2="126.83"/>
	<line class="st0" x1="96.65" y1="-36.17" x2="96.65" y2="126.83"/>
	<line class="st0" x1="121.66" y1="-36.17" x2="121.66" y2="126.83"/>
	<line class="st0" x1="71.64" y1="-36.17" x2="71.64" y2="126.83"/>
	<line class="st0" x1="46.63" y1="-36.17" x2="46.63" y2="126.83"/>
	<line class="st0" x1="21.61" y1="-36.17" x2="21.61" y2="126.83"/>
	<line class="st0" x1="9.11" y1="-36.17" x2="9.11" y2="126.83"/>
</g>
</svg>
